# xmcd
#
# Track frame offsets: 
#        150
#        13822
#        27538
#        42647
#        55877
#        69727
#        83574
#        97607
#        110248
#        123900
#        136088
#        150028
#        164245
#        176797
#        193048
#        206655
#        219711
#        234355
#
# Disc length: 3276 seconds
#
# Revision: 1
# Processed by: cddbd v1.5.2PL0 Copyright (c) Steve Scherf et al.
# Submitted via: ExactAudioCopy v0.95b2
#
DISCID=fd0cca12
DTITLE=Various Artist - The Essential Country Blues Disc 2
DYEAR=2001
DGENRE=Blues
TTITLE0=Hambone Willie Newbern/Hambone Willie's Dreamy-Eyed Woman's Bl
TTITLE0=ues 
TTITLE1=Robert Wilkins/Police Seargent Blues 
TTITLE2=Scrapper Blackwell/Penal Farm Blues 
TTITLE3=George Carter/Ghost Woman Blues 
TTITLE4=Freezone/Indian Squaw Blues 
TTITLE5=Tarter and Gay/Unknown Blues 
TTITLE6=Frank Stokes/Nehi Mamma Blues 
TTITLE7=Mae Glover/I Ain't Givin' Nobody None 
TTITLE8=Tom Dickson/Happy Blues 
TTITLE9=Henry Spaulding/Cairo Blues 
TTITLE10=Pink Anderson/C.C. and O Blues 
TTITLE11=Furry Lewis/I Will Turn Your Money Green 
TTITLE12=Evans and McClain/John Henry Blues 
TTITLE13=Charlie Lincoln/Jealous Hearted Blues 
TTITLE14=Geeshie Wiley/Last Kind Words Blues 
TTITLE15=Noah Lewis/Devil in the Woodpile 
TTITLE16=Buddy Moss/Bye, Bye, mama 
TTITLE17=Walter ''Buddy Boy'' Hawkins/Jailhouse Fire Blues 
EXTD=YEAR: 2001
EXTT0=
EXTT1=
EXTT2=
EXTT3=
EXTT4=
EXTT5=
EXTT6=
EXTT7=
EXTT8=
EXTT9=
EXTT10=
EXTT11=
EXTT12=
EXTT13=
EXTT14=
EXTT15=
EXTT16=
EXTT17=
PLAYORDER=
